<?xml version="1.0" encoding="UTF-8"?>
<svg width="800" height="800" viewBox="0 0 800 800" fill="none" xmlns="http://www.w3.org/2000/svg">
  <!-- Background Circle -->
  <circle cx="400" cy="400" r="350" fill="url(#gradient-bg)" opacity="0.1"/>
  
  <!-- AI Companion (Left) -->
  <g transform="translate(200, 300)">
    <!-- Robot Head -->
    <rect x="0" y="0" width="120" height="120" rx="20" fill="#2C2C2C"/>
    <circle cx="40" cy="40" r="15" fill="#FCCC41"/>
    <circle cx="80" cy="40" r="15" fill="#FCCC41"/>
    <path d="M30 80 Q60 100 90 80" stroke="#FCCC41" stroke-width="4" fill="none"/>
    
    <!-- Sound Waves -->
    <path d="M-40 60 Q-20 40 0 60 Q20 80 40 60" stroke="#2C2C2C" stroke-width="3" fill="none" opacity="0.5"/>
    <path d="M-60 60 Q-30 30 0 60 Q30 90 60 60" stroke="#2C2C2C" stroke-width="3" fill="none" opacity="0.3"/>
  </g>
  
  <!-- Student (Right) -->
  <g transform="translate(450, 300)">
    <!-- Person -->
    <circle cx="0" cy="0" r="40" fill="#2C2C2C"/>
    <path d="M-30 40 L30 40 L20 120 L-20 120 Z" fill="#2C2C2C"/>
    
    <!-- Thought Bubbles -->
    <circle cx="60" cy="-20" r="15" fill="#FCCC41" opacity="0.3"/>
    <circle cx="90" cy="-40" r="10" fill="#FCCC41" opacity="0.2"/>
    <circle cx="110" cy="-60" r="5" fill="#FCCC41" opacity="0.1"/>
  </g>
  
  <!-- Connection Line -->
  <path d="M320 360 L480 360" stroke="#2C2C2C" stroke-width="4" stroke-dasharray="10 10"/>
  
  <!-- Decorative Elements -->
  <circle cx="200" cy="200" r="20" fill="#FCCC41" opacity="0.2"/>
  <circle cx="600" cy="600" r="30" fill="#FCCC41" opacity="0.2"/>
  <circle cx="500" cy="150" r="15" fill="#FCCC41" opacity="0.2"/>
  
  <!-- Gradient Definition -->
  <defs>
    <linearGradient id="gradient-bg" x1="0" y1="0" x2="800" y2="800">
      <stop offset="0%" stop-color="#FCCC41"/>
      <stop offset="100%" stop-color="#2C2C2C"/>
    </linearGradient>
  </defs>
</svg> 